<svg version="1.1" xmlns="http://www.w3.org/2000/svg" xmlns:xlink="http://www.w3.org/1999/xlink" width="229.875" height="229.875" viewBox="0,0,229.875,229.875"><defs><radialGradient cx="240" cy="180" r="11.75967" gradientUnits="userSpaceOnUse" id="color-1"><stop offset="0" stop-color="#ffea00" stop-opacity="0"/><stop offset="1" stop-color="#ffea00" stop-opacity="0"/></radialGradient></defs><g transform="translate(-125.0625,-65.0625)"><g data-paper-data="{&quot;isPaintingLayer&quot;:true}" fill-rule="nonzero" stroke-linejoin="miter" stroke-miterlimit="10" stroke-dasharray="" stroke-dashoffset="0" style="mix-blend-mode: normal"><path d="M186.61319,180c0,-29.48468 23.90214,-53.38681 53.38682,-53.38681c29.48467,0 53.38682,23.90214 53.38682,53.38682c0,29.48468 -23.90214,53.38682 -53.38682,53.38682c-29.48468,0 -53.38682,-23.90214 -53.38682,-53.38682z" fill="#737373" stroke="#343434" stroke-width="2.5" stroke-linecap="butt"/><path d="M204.35667,144.35667l71.28663,71.28663" fill="none" stroke="#343434" stroke-width="2.5" stroke-linecap="round"/><path d="M275.64333,144.35667l-71.28663,71.28663" data-paper-data="{&quot;index&quot;:null}" fill="none" stroke="#343434" stroke-width="2.5" stroke-linecap="round"/><path d="M200.8548,180c0,-21.61928 17.52592,-39.14521 39.14521,-39.14521c21.61928,0 39.1452,17.52592 39.1452,39.14521c0,21.61928 -17.52592,39.14521 -39.1452,39.14521c-21.61928,0 -39.14521,-17.52592 -39.14521,-39.14521z" fill="#7e7e7e" stroke="#343434" stroke-width="2.5" stroke-linecap="butt"/><path d="M240,217.63568v-75.27134" fill="none" stroke="#343434" stroke-width="2.5" stroke-linecap="round"/><path d="M201.62903,180h76.74197" fill="none" stroke="#343434" stroke-width="2.5" stroke-linecap="round"/><path d="M199.45098,180c0,-22.39459 18.15444,-40.54902 40.54903,-40.54902c22.39459,0 40.54902,18.15444 40.54902,40.54903c0,22.39459 -18.15444,40.54903 -40.54902,40.54903c-22.39459,0 -40.54902,-18.15444 -40.54902,-40.54902z" fill="none" stroke-opacity="0.50196" stroke="#ffe900" stroke-width="2.5" stroke-linecap="butt"/><path d="M225.32133,180c0,-8.10679 6.57189,-14.67867 14.67867,-14.67867c8.10679,0 14.67867,6.57189 14.67867,14.67867c0,8.10679 -6.57189,14.67867 -14.67867,14.67867c-8.10679,0 -14.67867,-6.57189 -14.67867,-14.67867z" fill="#7e7e7e" stroke="#343434" stroke-width="2.5" stroke-linecap="butt"/><path d="M224.08459,180c0,-8.78983 7.12558,-15.91541 15.91541,-15.91541c8.78983,0 15.91541,7.12558 15.91541,15.91541c0,8.78983 -7.12558,15.91541 -15.91541,15.91541c-8.78983,0 -15.91541,-7.12558 -15.91541,-15.91541z" fill="none" stroke-opacity="0.50196" stroke="#ffe900" stroke-width="2.5" stroke-linecap="butt"/><path d="M125.0625,294.9375v-229.875h229.875v229.875z" fill="none" stroke="none" stroke-width="4" stroke-linecap="butt"/><path d="M227.45276,180c0,-6.92963 5.6176,-12.54724 12.54724,-12.54724c6.92963,0 12.54724,5.6176 12.54724,12.54724c0,6.92963 -5.6176,12.54724 -12.54724,12.54724c-6.92963,0 -12.54724,-5.6176 -12.54724,-12.54724z" fill="#808080" stroke="#343434" stroke-width="2.5" stroke-linecap="butt"/><path d="M240,192.24389v-24.48779" fill="none" stroke="#343434" stroke-width="2.5" stroke-linecap="round"/><path d="M251.78061,180h-23.56122" fill="none" stroke="#343434" stroke-width="2.5" stroke-linecap="round"/><path d="M228.24033,180c0,-6.49469 5.26498,-11.75966 11.75967,-11.75966c6.49469,0 11.75967,5.26498 11.75967,11.75966c0,6.49469 -5.26501,11.75966 -11.75967,11.75966c-6.49469,0 -11.75967,-5.26498 -11.75967,-11.75966z" fill="url(#color-1)" stroke-opacity="0.6" stroke="#ffea00" stroke-width="2.5" stroke-linecap="butt"/><path d="M236.05102,180c0,-2.18096 1.76802,-3.94898 3.94898,-3.94898c2.18096,0 3.94898,1.76802 3.94898,3.94898c0,2.18096 -1.76802,3.94898 -3.94898,3.94898c-2.18096,0 -3.94898,-1.76802 -3.94898,-3.94898z" fill-opacity="0.69804" fill="#ffea00" stroke="#343434" stroke-width="1.5" stroke-linecap="butt"/><path d="M185.8125,234.1875v-108.375h108.375v108.375z" fill="none" stroke="none" stroke-width="2.5" stroke-linecap="butt"/><path d="M212.58459,180c0,-15.1411 12.27431,-27.41541 27.41541,-27.41541c15.1411,0 27.41541,12.27431 27.41541,27.41541c0,15.1411 -12.27431,27.41541 -27.41541,27.41541c-15.1411,0 -27.41541,-12.27431 -27.41541,-27.41541z" fill="none" stroke-opacity="0.50196" stroke="#ffe900" stroke-width="2.5" stroke-linecap="butt"/><path d="M245.96875,127l-5,12l1,7h-7.66666l-2.66667,5.33334l3.99999,21l4.00001,6.99999l-12,-1.99999l-5.33333,-12l-21.33334,4l9.33334,-8.33334l-15.66667,-10" fill="none" stroke-opacity="0.60392" stroke="#ffea00" stroke-width="2.5" stroke-linecap="round"/><path d="M229.63542,232l5.66667,-18.33334l-6,-18.66666l-14,3l6,-10l11,-6l7.33333,-2l21.66666,-10h10l-2,7l24,3.66667" fill="none" stroke-opacity="0.60392" stroke="#ffea00" stroke-width="2.5" stroke-linecap="round"/><path d="M281.96875,210.66667l-9.99999,-13.66667l-8.66667,-2l-7,3.33334l-5.66667,-5.66667l-13.33334,-2.33334l2.66667,-11l4.66667,-15l4.66667,-13.33333l7,3.66667l18.33333,-17" fill="none" stroke-opacity="0.60392" stroke="#ffea00" stroke-width="2.5" stroke-linecap="round"/><path d="M189.63542,197.66667l10.33333,-12.66667l16.66667,-3.33333l23.33333,-2l-31.33333,27l-6,2l-1.66667,10.33333" fill="none" stroke-opacity="0.60392" stroke="#ffea00" stroke-width="2.5" stroke-linecap="round"/><path d="M214.30208,132.66667l11.33333,27.33333l5,4.66667l9.66667,14.66666l7.33333,27.66667l2.66667,11.33333l4.66667,2.66667l3.66667,8.33333" fill="none" stroke-opacity="0.60392" stroke="#ffea00" stroke-width="2.5" stroke-linecap="round"/></g></g></svg>